<svg width="25" height="24" viewBox="0 0 25 24" fill="none" xmlns="http://www.w3.org/2000/svg">
<g clip-path="url(#clip0_4_1476)">
<path d="M16 14H15.21L14.93 13.73C16.13 12.33 16.75 10.42 16.41 8.39002C15.94 5.61002 13.62 3.39002 10.82 3.05002C6.59001 2.53002 3.03002 6.09001 3.55002 10.32C3.89002 13.12 6.11002 15.44 8.89002 15.91C10.92 16.25 12.83 15.63 14.23 14.43L14.5 14.71V15.5L18.75 19.75C19.16 20.16 19.83 20.16 20.24 19.75C20.65 19.34 20.65 18.67 20.24 18.26L16 14ZM10 14C7.51002 14 5.50002 11.99 5.50002 9.50002C5.50002 7.01002 7.51002 5.00002 10 5.00002C12.49 5.00002 14.5 7.01002 14.5 9.50002C14.5 11.99 12.49 14 10 14Z" fill="#553B33"/>
</g>
<defs>
<clipPath id="clip0_4_1476">
<rect width="24" height="24" fill="white" transform="translate(0.5)"/>
</clipPath>
</defs>
</svg>
