<svg width="32" height="32" viewBox="0 0 32 32" fill="none" xmlns="http://www.w3.org/2000/svg">
<path d="M5.10586 13.4471C5.10586 8.06883 5.10586 5.37971 6.3966 3.44798C6.95537 2.61172 7.67339 1.8937 8.50966 1.33493C10.4414 0.0441895 13.1305 0.0441895 18.5087 0.0441895C23.887 0.0441895 26.5761 0.0441895 28.5078 1.33493C29.3441 1.8937 30.0621 2.61172 30.6209 3.44798C31.9116 5.37971 31.9116 8.06883 31.9116 13.4471C31.9116 18.8253 31.9116 21.5144 30.6209 23.4462C30.0621 24.2824 29.3441 25.0004 28.5078 25.5592C26.5761 26.85 23.887 26.85 18.5087 26.85C13.1305 26.85 10.4414 26.85 8.50966 25.5592C7.67339 25.0004 6.95537 24.2824 6.3966 23.4462C5.10586 21.5144 5.10586 18.8253 5.10586 13.4471Z" fill="#553B33"/>
<path d="M0 15.3618C0 10.5479 0 8.14099 1.49547 6.64552C2.99094 5.15005 5.39787 5.15005 10.2117 5.15005H16.594C21.4079 5.15005 23.8148 5.15005 25.3103 6.64552C26.8058 8.14099 26.8058 10.5479 26.8058 15.3618V21.7441C26.8058 26.558 26.8058 28.9649 25.3103 30.4603C23.8148 31.9558 21.4079 31.9558 16.594 31.9558H10.2117C5.39787 31.9558 2.99094 31.9558 1.49547 30.4603C0 28.9649 0 26.558 0 21.7441V15.3618Z" fill="#2F241F"/>
</svg>
